<svg width="32" height="40" viewBox="0 0 32 40" fill="none" xmlns="http://www.w3.org/2000/svg">
<path d="M14.5942 15.1248C14.5942 12.7988 15.8738 12.2172 16.5135 12.2172C18.5608 11.9588 19.0726 14.0479 19.0726 15.1248V23.5243C19.0726 23.5243 27.3005 23.3731 29.0919 24.1484C31.651 25.2561 30.4781 29.102 30.3714 29.9635C29.7317 33.5171 28.6692 37.9326 28.6692 38.708C28.6692 39.4833 27.8162 39.8925 27.3897 40.0002H16.5135C15.7458 40.0002 14.9141 39.3541 14.5942 39.031L5.31751 29.3393C4.99762 29.1239 4.4858 28.4993 4.99762 27.724C6.27717 26.1733 9.15615 27.0779 10.4357 27.724L14.5942 29.6624V15.1248Z" fill="#FFBC00"/>
<path d="M10.7536 20.5366H4.66428C3.77626 20.5366 2.00021 19.9468 2.00021 17.5876C2.00021 15.2284 2.00021 4.949 2.00021 4.949C2.00021 4.949 1.92409 2 4.66428 2C7.40446 2 20.7756 2 27.1186 2C28.0066 2 29.7826 2.5898 29.7826 4.949C29.7826 7.3082 29.7826 14.3577 29.7826 17.5876C29.9095 18.5706 29.5543 20.5366 27.1186 20.5366C24.6829 20.5366 22.9182 20.5366 21.7765 20.5366" stroke="black" stroke-width="3" stroke-linecap="round"/>
</svg>
