<svg width="35" height="35" viewBox="0 0 35 35" fill="none" xmlns="http://www.w3.org/2000/svg">
<path d="M34.6661 18.3578C34.1023 8.47731 26.191 0.566022 16.3127 0.00216867C16.2932 0 16.2737 0 16.2542 0C15.6643 0 15.1807 0.503131 15.1807 1.09951V19.4876H33.5753C34.189 19.4855 34.703 18.9693 34.6661 18.3578ZM17.3493 17.319V2.27276C25.2129 3.24866 31.4196 9.45538 32.3955 17.319H17.3493Z" fill="black"/>
<path d="M14.0963 21.6563C13.4978 21.6563 13.012 21.1705 13.012 20.572V4.48047C5.65805 5.53444 0 11.8409 0 19.4876C0 27.8717 6.7966 34.6683 15.1807 34.6683C22.8274 34.6683 29.1339 29.0103 30.19 21.6563H14.0963Z" fill="#FFBC00"/>
</svg>
