<svg width="38" height="38" viewBox="0 0 38 38" fill="none" xmlns="http://www.w3.org/2000/svg">
<path d="M30.0293 34.1768C27.5762 34.1768 25.5805 32.2279 25.5805 29.8323V7.24085C25.5805 4.84529 27.5762 2.89634 30.0293 2.89634C30.8483 2.89634 31.5122 2.248 31.5122 1.44817C31.5122 0.648346 30.8483 0 30.0293 0C27.6065 0 25.4515 1.1408 24.0976 2.90112C22.7436 1.1408 20.5887 0 18.1658 0C17.3468 0 16.6829 0.648346 16.6829 1.44817C16.6829 2.248 17.3468 2.89634 18.1658 2.89634C20.6189 2.89634 22.6146 4.84529 22.6146 7.24085V29.8323C22.6146 32.2279 20.6189 34.1768 18.1658 34.1768C17.3468 34.1768 16.6829 34.8252 16.6829 35.625C16.6829 36.4248 17.3468 37.0732 18.1658 37.0732C20.5887 37.0732 22.7436 35.9324 24.0976 34.1721C25.4515 35.9324 27.6065 37.0732 30.0293 37.0732C30.8483 37.0732 31.5122 36.4248 31.5122 35.625C31.5122 34.8252 30.8483 34.1768 30.0293 34.1768Z" fill="black"/>
<path d="M5.79268 28.7301H18.4642C19.264 28.7301 19.9123 28.0733 19.9123 27.2632C19.9123 26.453 19.264 25.7962 18.4642 25.7962H5.79268C4.19564 25.7962 2.89634 24.4801 2.89634 22.8624V14.2075C2.89634 12.5898 4.19564 11.2737 5.79268 11.2737H18.4642C19.264 11.2737 19.9123 10.617 19.9123 9.80677C19.9123 8.99659 19.264 8.33984 18.4642 8.33984H5.79268C2.5986 8.33984 0 10.9721 0 14.2075V22.8624C0 26.0978 2.5986 28.7301 5.79268 28.7301Z" fill="#FFB800"/>
<path d="M29.9771 8.33984H31.2805C34.4746 8.33984 37.0732 10.972 37.0732 14.2075V22.8624C37.0732 26.0978 34.4746 28.7301 31.2805 28.7301H29.9771C29.1773 28.7301 28.529 28.0733 28.529 27.2632C28.529 26.453 29.1773 25.7962 29.9771 25.7962H31.2805C32.8775 25.7962 34.1768 24.4801 34.1768 22.8624V14.2075C34.1768 12.5898 32.8775 11.2737 31.2805 11.2737H29.9771C29.1773 11.2737 28.529 10.617 28.529 9.80677C28.529 8.99659 29.1773 8.33984 29.9771 8.33984Z" fill="#FFB800"/>
</svg>
