<svg width="27" height="44" viewBox="0 0 27 44" fill="none" xmlns="http://www.w3.org/2000/svg">
<path d="M8.5503 40.5383C8.19196 38.9258 10.342 38.9706 10.342 38.9706L16.8367 38.9705C17.9117 38.9704 18.0312 39.717 17.9565 40.0903C17.8818 40.6129 17.6877 41.7924 17.5086 42.3299C17.3294 42.8674 16.8367 43.0018 16.6127 43.0018H11.9095C9.58031 43.0018 9.14732 42.7032 9.22197 42.5539C9.14739 42.5539 8.90864 42.1508 8.5503 40.5383Z" fill="white"/>
<rect x="11.1816" width="4.92717" height="6.71887" rx="2.46359" fill="white"/>
<rect x="20.3645" y="0.900146" width="4.92717" height="6.71887" rx="2.46359" transform="rotate(30 20.3645 0.900146)" fill="white"/>
<rect x="10.298" y="6.71753" width="4.92717" height="6.71887" rx="2.46359" transform="rotate(150 10.298 6.71753)" fill="white"/>
<path d="M3.34312 11.8685C-1.13612 15.8102 -0.16562 21.5735 0.879537 23.9624C1.41294 25.7536 3.3415 28.2917 4.2391 29.3369C4.91099 30.0088 6.25476 31.8005 6.25476 33.5922C6.25476 36.8172 8.793 37.4742 10.0621 37.3995H16.781C17.3782 37.3995 18.5727 36.9964 18.5727 35.3839C18.5727 33.7713 16.9303 33.5175 16.1091 33.5922H11.6299C10.3757 33.5922 10.0621 32.8456 10.0621 32.4724C10.2114 31.8005 9.83816 29.6952 7.15061 26.6493C4.46306 23.6035 4.08979 20.4531 4.2391 19.2586C4.46306 16.7952 6.65777 11.8685 13.6449 11.8685C22.3788 11.8685 22.604 19.9305 22.604 20.8276C22.604 21.5453 22.0068 21.7239 21.7082 21.7234H10.0621C9.31579 21.6484 7.82313 21.9911 7.82313 23.9624C7.82313 25.9338 9.31579 26.2765 10.0621 26.2014H23.7238C24.3211 26.2014 25.6947 25.5295 26.4114 22.842C28.2031 15.0033 23.0519 10.5247 18.7967 8.95696C14.5414 7.38922 8.94218 6.94129 3.34312 11.8685Z" fill="white"/>
</svg>
