<svg width="37" height="37" viewBox="0 0 37 37" fill="none" xmlns="http://www.w3.org/2000/svg">
<g clip-path="url(#clip0)">
<path fill-rule="evenodd" clip-rule="evenodd" d="M36.877 23.814L34.3968 13.2745C33.7289 10.4353 31.1119 7.51587 27.1265 7.51587H9.87395C6.95708 7.51587 3.51599 9.39506 2.60335 13.2745L0.123176 23.814C-0.55008 26.675 1.62156 29.4197 4.56441 29.4197C5.81494 29.4197 6.99123 28.7535 7.634 27.6816L9.54452 24.498C9.87113 23.9532 10.4685 23.615 11.1036 23.615H25.8963C26.5315 23.615 27.1291 23.9535 27.4557 24.4983L29.3659 27.6814C30.009 28.7535 31.1853 29.4197 32.4372 29.4197C35.3755 29.4197 37.5508 26.6778 36.877 23.814ZM13.8565 16.6493H12.6184V17.8874C12.6184 18.4858 12.1331 18.9711 11.5344 18.9711C10.9359 18.9711 10.4507 18.4858 10.4507 17.8874V16.6493H9.21255C8.6141 16.6493 8.12885 16.164 8.12885 15.5656C8.12885 14.9669 8.6141 14.4816 9.21255 14.4816H10.4507V13.2435C10.4507 12.645 10.9359 12.1598 11.5344 12.1598C12.1331 12.1598 12.6184 12.645 12.6184 13.2435V14.4816H13.8565C14.4549 14.4816 14.9402 14.9669 14.9402 15.5656C14.9402 16.164 14.4549 16.6493 13.8565 16.6493ZM23.1437 16.6493C22.5456 16.6493 22.06 16.1637 22.06 15.5656C22.06 14.9671 22.5458 14.4816 23.1437 14.4816C23.7422 14.4816 24.2277 14.9671 24.2277 15.5656C24.2277 16.1637 23.7422 16.6493 23.1437 16.6493ZM25.4658 18.9711C24.8677 18.9711 24.3818 18.4856 24.3818 17.8874C24.3818 17.2892 24.8677 16.8034 25.4658 16.8034C26.064 16.8034 26.5495 17.2892 26.5495 17.8874C26.5495 18.4856 26.064 18.9711 25.4658 18.9711ZM25.4658 14.3275C24.8677 14.3275 24.3818 13.8419 24.3818 13.2435C24.3818 12.6453 24.8677 12.1598 25.4658 12.1598C26.064 12.1598 26.5495 12.6453 26.5495 13.2435C26.5495 13.8419 26.064 14.3275 25.4658 14.3275ZM27.7876 16.6493C27.1895 16.6493 26.7037 16.1637 26.7037 15.5656C26.7037 14.9671 27.1895 14.4816 27.7876 14.4816C28.3858 14.4816 28.8713 14.9671 28.8713 15.5656C28.8713 16.1637 28.3858 16.6493 27.7876 16.6493Z" fill="#D0DFE6"/>
</g>
<defs>
<clipPath id="clip0">
<rect width="37" height="37" fill="white"/>
</clipPath>
</defs>
</svg>
