<svg width="23" height="23" viewBox="0 0 23 23" fill="none" xmlns="http://www.w3.org/2000/svg">
<path d="M11.0618 0.216916C5.01588 0.216916 0.11473 5.11807 0.11473 11.1639C0.114729 17.2098 5.01588 22.111 11.0618 22.111C17.1076 22.111 22.0088 17.2098 22.0088 11.1639C22.0088 5.11807 17.1076 0.216917 11.0618 0.216916Z" fill="#3F4551"/>
<path d="M15.617 10.227C15.504 10.227 15.394 10.2398 15.2881 10.2633C15.4052 9.98088 15.4702 9.67135 15.4702 9.34649C15.4702 8.02406 14.3982 6.95202 13.0758 6.95202C12.8594 6.95202 12.6498 6.98123 12.4504 7.03506C12.2505 5.3207 10.7935 3.99009 9.02542 3.99009C7.25738 3.99009 5.80032 5.32062 5.60039 7.03506C5.40102 6.98123 5.19146 6.95202 4.97508 6.95202C3.65264 6.95202 2.58061 8.02406 2.58061 9.34649C2.58061 9.67127 2.64559 9.98079 2.76273 10.2633C2.65682 10.2398 2.54683 10.227 2.43387 10.227C1.59771 10.227 0.919922 10.9049 0.919922 11.741C0.919922 12.5771 1.59779 13.2549 2.43387 13.2549H15.617C16.4531 13.2549 17.1309 12.577 17.1309 11.741C17.1309 10.9049 16.4531 10.227 15.617 10.227Z" fill="white" fill-opacity="0.18"/>
<path d="M9.02436 11.1836C9.02436 11.1368 9.02629 11.0903 9.02917 11.0442C9.02757 11.0442 9.02596 11.0443 9.02436 11.0443C7.1197 11.0443 5.57575 9.50024 5.57575 7.59565C5.57575 7.45902 5.58393 7.32439 5.59941 7.19193C5.40004 7.1381 5.19048 7.10889 4.9741 7.10889C3.65166 7.10889 2.57963 8.18093 2.57963 9.50336C2.57963 9.82814 2.64462 10.1377 2.76175 10.4202C2.65585 10.3966 2.54585 10.3839 2.43289 10.3839C1.59673 10.3839 0.918945 11.0618 0.918945 11.8978C0.918945 12.734 1.59681 13.4118 2.43289 13.4118H11.2526C10.0219 13.4118 9.02436 12.4142 9.02436 11.1836Z" fill="white" fill-opacity="0.18"/>
<path d="M20.7508 9.59711C20.0056 5.08616 16.2052 1.81439 11.7692 1.49648C11.3205 1.46434 11.0444 1.97423 11.3297 2.3166C12.4674 3.68147 13.1441 5.43306 13.1254 7.34071C13.0832 11.6379 9.47573 15.1137 5.1109 15.0668C4.31824 15.0583 3.55351 14.9352 2.83299 14.7135C2.40157 14.5808 2.02232 15.0212 2.22149 15.4206C4.07903 19.1458 8.24921 21.4054 12.6253 20.7047C17.9847 19.8464 21.6226 14.8734 20.7508 9.59711Z" fill="#FFE400"/>
<path d="M3.26927 16.7752C4.1055 16.9713 4.98284 17.0799 5.88776 17.0885C11.6746 17.1437 16.4574 13.0626 16.5133 8.01706C16.5381 5.77723 14.0097 1.94561 13.9901 1.8542C13.3216 1.66726 12.6274 1.5457 11.917 1.49646C11.4615 1.46489 11.181 1.96569 11.4708 2.30196C12.626 3.64251 13.3131 5.36289 13.2941 7.23655C13.2513 11.4572 9.58825 14.8711 5.15622 14.825C4.35132 14.8166 3.57485 14.6957 2.84324 14.478C2.40518 14.3476 2.0201 14.7802 2.22233 15.1725C2.51682 15.7437 2.86851 16.2797 3.26927 16.7752Z" fill="#FFF442"/>
<path d="M8.3047 18.3766C8.98265 18.3766 9.53225 17.827 9.53225 17.149C9.53225 16.4711 8.98265 15.9215 8.3047 15.9215C7.62674 15.9215 7.07715 16.4711 7.07715 17.149C7.07715 17.827 7.62674 18.3766 8.3047 18.3766Z" fill="#FFE400"/>
<path d="M16.4883 16.1261C17.1662 16.1261 17.7158 15.5765 17.7158 14.8985C17.7158 14.2206 17.1662 13.671 16.4883 13.671C15.8103 13.671 15.2607 14.2206 15.2607 14.8985C15.2607 15.5765 15.8103 16.1261 16.4883 16.1261Z" fill="#FFE400"/>
<path d="M14.8516 6.30569C15.5295 6.30569 16.0791 5.75609 16.0791 5.07814C16.0791 4.40018 15.5295 3.85059 14.8516 3.85059C14.1736 3.85059 13.624 4.40018 13.624 5.07814C13.624 5.75609 14.1736 6.30569 14.8516 6.30569Z" fill="#FFE400"/>
<path d="M8.30525 17.8381C7.9253 17.8381 7.61621 17.529 7.61621 17.149C7.61621 16.7691 7.9253 16.46 8.30525 16.46C8.6852 16.46 8.99432 16.7691 8.99432 17.149C8.99432 17.529 8.6852 17.8381 8.30525 17.8381Z" fill="#FDCA00"/>
<path d="M16.4888 15.5876C16.1089 15.5876 15.7998 15.2785 15.7998 14.8985C15.7998 14.5186 16.1089 14.2094 16.4888 14.2094C16.8688 14.2094 17.1779 14.5186 17.1779 14.8985C17.1779 15.2785 16.8688 15.5876 16.4888 15.5876Z" fill="#FDCA00"/>
<path d="M14.8521 5.76721C14.4722 5.76721 14.1631 5.45809 14.1631 5.07814C14.1631 4.69819 14.4722 4.38907 14.8521 4.38907C15.2321 4.38907 15.5412 4.69819 15.5412 5.07814C15.5412 5.45809 15.2321 5.76721 14.8521 5.76721Z" fill="#FDCA00"/>
<path d="M14.6465 10.6135C15.0985 10.6135 15.4649 10.2471 15.4649 9.79516C15.4649 9.34319 15.0985 8.97679 14.6465 8.97679C14.1945 8.97679 13.8281 9.34319 13.8281 9.79516C13.8281 10.2471 14.1945 10.6135 14.6465 10.6135Z" fill="#FFE400"/>
<path d="M12.3975 15.7169C12.8494 15.7169 13.2158 15.3505 13.2158 14.8985C13.2158 14.4465 12.8494 14.0802 12.3975 14.0802C11.9455 14.0802 11.5791 14.4465 11.5791 14.8985C11.5791 15.3505 11.9455 15.7169 12.3975 15.7169Z" fill="#FFE400"/>
</svg>
