<svg width="23" height="23" viewBox="0 0 23 23" fill="none" xmlns="http://www.w3.org/2000/svg">
<path d="M11.9382 22.1098C17.9841 22.1098 22.8853 17.2086 22.8853 11.1628C22.8853 5.11689 17.9841 0.215735 11.9382 0.215735C5.89236 0.215735 0.991211 5.11689 0.991211 11.1628C0.991211 17.2086 5.89236 22.1098 11.9382 22.1098Z" fill="#FFBC00"/>
<path d="M19.6509 10.1545C18.3203 10.0119 17.8632 8.30578 18.9442 7.51701C19.26 7.28668 19.3512 6.85531 19.1558 6.51686C18.9604 6.17842 18.5412 6.04176 18.1838 6.19997C16.9602 6.74184 15.7112 5.49285 16.2531 4.2692C16.4113 3.91184 16.2747 3.49267 15.9362 3.29728C15.5977 3.10189 15.1664 3.19309 14.936 3.50882C14.1473 4.5899 12.4411 4.13274 12.2986 2.8021C12.257 2.41348 11.929 2.11881 11.5382 2.11881C11.1474 2.11881 10.8195 2.41348 10.7778 2.8021C10.6353 4.13274 8.92915 4.5899 8.14039 3.50882C7.91005 3.19309 7.47869 3.10189 7.14024 3.29728C6.80179 3.49267 6.66513 3.91184 6.82338 4.2692C7.36526 5.49285 6.11626 6.7418 4.89262 6.19997C4.53526 6.04172 4.11609 6.17838 3.92069 6.51686C3.7253 6.85531 3.8165 7.28668 4.13224 7.51701C5.21331 8.30578 4.75616 10.0119 3.42552 10.1545C3.03685 10.1961 2.74219 10.524 2.74219 10.9148C2.74219 11.3057 3.03685 11.6336 3.42548 11.6752C4.75612 11.8177 5.21327 13.5239 4.1322 14.3127C3.81646 14.543 3.72526 14.9744 3.92065 15.3128C4.11605 15.6513 4.53522 15.7879 4.89258 15.6297C6.11622 15.0878 7.36518 16.3368 6.82334 17.5605C6.66509 17.9178 6.80175 18.337 7.1402 18.5324C7.47865 18.7278 7.91001 18.6366 8.14035 18.3208C8.92911 17.2398 10.6353 17.6969 10.7778 19.0276C10.8195 19.4162 11.1474 19.7109 11.5382 19.7109C11.929 19.7109 12.257 19.4162 12.2986 19.0276C12.4411 17.6969 14.1473 17.2398 14.936 18.3208C15.1664 18.6366 15.5977 18.7278 15.9362 18.5324C16.2746 18.337 16.4113 17.9178 16.253 17.5605C15.7112 16.3368 16.9602 15.0879 18.1838 15.6297C18.5412 15.788 18.9603 15.6513 19.1557 15.3128C19.3511 14.9744 19.2599 14.543 18.9442 14.3127C17.8631 13.5239 18.3203 11.8177 19.6509 11.6752C20.0396 11.6336 20.3342 11.3057 20.3342 10.9148C20.3342 10.524 20.0396 10.1961 19.6509 10.1545Z" fill="#FFF442"/>
<path d="M11.5383 16.9121C14.8505 16.9121 17.5356 14.2271 17.5356 10.9148C17.5356 7.60264 14.8505 4.91756 11.5383 4.91756C8.22609 4.91756 5.54102 7.60264 5.54102 10.9148C5.54102 14.2271 8.22609 16.9121 11.5383 16.9121Z" fill="#FFE400"/>
<path d="M7.79841 13.4772C7.41846 13.4772 7.10938 13.168 7.10938 12.7881C7.10938 12.4081 7.41846 12.099 7.79841 12.099C8.17836 12.099 8.48748 12.4081 8.48748 12.7881C8.48748 13.168 8.17836 13.4772 7.79841 13.4772Z" fill="#FDCA00"/>
<path fill-rule="evenodd" clip-rule="evenodd" d="M13.3558 15.0299C15.2553 14.4292 16.6322 12.6526 16.6322 10.5544C16.6322 7.96253 14.531 5.86139 11.9392 5.86139C10.5029 5.86139 9.2173 6.5066 8.35645 7.52298C8.80342 7.38164 9.27933 7.3054 9.77305 7.3054C12.3649 7.3054 14.4661 9.40653 14.4661 11.9984C14.4661 13.154 14.0484 14.2121 13.3558 15.0299Z" fill="#FFF442"/>
</svg>
